<svg id="Img" xmlns="http://www.w3.org/2000/svg" width="24" height="24" viewBox="0 0 24 24">
  <g id="Image_2" data-name="Image 2" transform="translate(2 2)">
    <path id="Combined_Shape" data-name="Combined Shape" d="M5.651,19.954C2.271,19.954,0,17.582,0,14.05V5.9C0,2.372,2.271,0,5.651,0H14.3a5.517,5.517,0,0,1,4.01,1.554A6.057,6.057,0,0,1,19.953,5.9v6.979a.756.756,0,0,1,0,.134V14.05c0,3.532-2.273,5.9-5.656,5.9Zm0-1.5H14.3c2.525,0,4.155-1.729,4.155-4.4v-.8c-.872-.9-2.4-2.418-3.874-2.418-.588,0-1.278.973-1.888,1.832-.839,1.181-1.706,2.4-3.011,2.4a6.235,6.235,0,0,1-2.4-.641c-1.134-.478-1.648-.631-2.151-.217a13.767,13.767,0,0,0-2.459,3.083A4.038,4.038,0,0,0,5.651,18.454ZM1.5,5.9V14.05a5.394,5.394,0,0,0,.294,1.815A13.512,13.512,0,0,1,4.17,13.049c1.252-1.03,2.6-.464,3.686-.007a4.985,4.985,0,0,0,1.823.524c.532,0,1.2-.941,1.789-1.769.819-1.156,1.749-2.464,3.11-2.464a6.169,6.169,0,0,1,3.874,1.829V5.9a4.518,4.518,0,0,0-1.2-3.29A4.054,4.054,0,0,0,14.3,1.5H5.651C3.129,1.5,1.5,3.229,1.5,5.9Zm2.76.881a2.6,2.6,0,1,1,2.6,2.6A2.6,2.6,0,0,1,4.261,6.785Zm1.5,0a1.1,1.1,0,1,0,1.094-1.1A1.1,1.1,0,0,0,5.761,6.785Z" transform="translate(0 0)" fill="#dee0e3" stroke="rgba(0,0,0,0)" stroke-width="1"/>
  </g>
</svg>
