<svg xmlns="http://www.w3.org/2000/svg" width="24" height="24" viewBox="0 0 24 24">
  <g id="Poll" transform="translate(-556 -252)">
    <g id="chart">
      <path id="Vector" d="M0,0H20" transform="translate(558 274)" fill="none" stroke="#dee0e3" stroke-linecap="round" stroke-linejoin="round" stroke-width="1.5"/>
      <path id="Vector-2" data-name="Vector" d="M0,2V20H4.5V2c0-1.1-.45-2-1.8-2H1.8C.45,0,0,.9,0,2Z" transform="translate(565.75 254)" fill="none" stroke="#dee0e3" stroke-linecap="round" stroke-linejoin="round" stroke-width="1.5"/>
      <path id="Vector-3" data-name="Vector" d="M0,2V14H4V2C4,.9,3.6,0,2.4,0H1.6C.4,0,0,.9,0,2Z" transform="translate(559 260)" fill="none" stroke="#dee0e3" stroke-linecap="round" stroke-linejoin="round" stroke-width="1.5"/>
      <path id="Vector-4" data-name="Vector" d="M0,2V9H4V2C4,.9,3.6,0,2.4,0H1.6C.4,0,0,.9,0,2Z" transform="translate(573 265)" fill="none" stroke="#dee0e3" stroke-linecap="round" stroke-linejoin="round" stroke-width="1.5"/>
      <path id="Vector-5" data-name="Vector" d="M0,0H24V24H0Z" transform="translate(556 252)" fill="none" opacity="0"/>
    </g>
  </g>
</svg>
