<svg xmlns="http://www.w3.org/2000/svg" width="16.555" height="15.71" viewBox="0 0 16.555 15.71">
  <g id="Group_3" data-name="Group 3" transform="translate(-589.255 -397.182)">
    <path id="Path_331" data-name="Path 331" d="M19.855,11.694c0,.866-1.059,1.444-1.347,2.214s.192,1.925-.289,2.6-1.733.577-2.406,1.059S14.847,19.3,14.08,19.49c-.77.289-1.733-.577-2.5-.577-.866,0-1.733.77-2.5.577-.77-.289-1.059-1.444-1.733-1.925S5.418,17.18,4.936,16.5s0-1.829-.289-2.6S3.3,12.464,3.3,11.694c0-.866,1.059-1.444,1.347-2.213s-.192-1.925.289-2.6S6.669,6.3,7.342,5.823,8.308,4.09,9.075,3.9c.77-.289,1.733.577,2.5.577.866,0,1.733-.77,2.5-.577.77.289,1.059,1.444,1.733,1.925s1.925.385,2.406,1.059,0,1.829.289,2.6S19.855,10.828,19.855,11.694Z" transform="translate(585.955 393.344)" fill="#915ff6"/>
    <path id="Path_332" data-name="Path 332" d="M16.26,9.1a.621.621,0,0,0-.816,0l-4.59,4.59L8.713,11.551a.577.577,0,0,0-.816.816l2.55,2.55a.773.773,0,0,0,.408.2.773.773,0,0,0,.408-.2l5-5A.617.617,0,0,0,16.26,9.1Z" transform="translate(585.461 393.003)" fill="#fff"/>
  </g>
</svg>
