<svg xmlns="http://www.w3.org/2000/svg" width="178.65" height="152.695" viewBox="0 0 178.65 152.695">
  <g id="Group_49" data-name="Group 49" transform="translate(-17933 -3058)">
    <g id="Group_48" data-name="Group 48" transform="translate(17933 3058)">
      <path id="Path_92" data-name="Path 92" d="M153.5,53.176s-24.47,31-63.623,12.507-78.3,31.54-44.59,61.992.722,47.185,23.627,65.848c26.032,21.212,48.7-21.8,69.36-12.013,45.607,21.6,79.393,13.051,71.78-11.963-13.364-43.909-30.453-46.765-17.4-69.6S176.9,29.614,153.5,53.176Z" transform="translate(-32.479 -46.784)" fill="#393b3e"/>
      <path id="Path_93" data-name="Path 93" d="M158.084,158.835l-1.933,10.379-9.208,49.338-16.586-3.1,10.635-56.994.506-2.716Z" transform="translate(-50.384 -66.717)" fill="#b590ff"/>
      <path id="Path_94" data-name="Path 94" d="M194.834,121.43l-5.719,30.663a.7.7,0,0,1-.291.447.7.7,0,0,1-.521.109l-80.354-14.986,9.457-50.708,61.018,11.381C189.483,100.4,196.829,110.735,194.834,121.43Z" transform="translate(-46.285 -54.133)" fill="#dac7ff"/>
      <path id="Path_95" data-name="Path 95" d="M129.816,111.047l-5.675,30.425-42.178-7.867,5.675-30.425c2.089-11.2,13.225-18.523,24.872-16.35S131.9,99.845,129.816,111.047Z" transform="translate(-41.531 -54.04)" fill="#b590ff"/>
      <path id="Path_96" data-name="Path 96" d="M163.516,131.394a5.785,5.785,0,0,1,2.121-11.373,5.708,5.708,0,0,1,4.343,3.752l39.261,7.322-1.061,5.687-39.261-7.322a5.708,5.708,0,0,1-5.4,1.935Z" transform="translate(-55.596 -60.164)" fill="#915ff6"/>
      <path id="Path_97" data-name="Path 97" d="M128.683,111.907l-5.529,29.643-39.733-7.411L88.95,104.5a20.209,20.209,0,0,1,39.733,7.411Z" transform="translate(-41.798 -54.341)" fill="#915ff6"/>
      <path id="Path_98" data-name="Path 98" d="M165.276,129.151a2.893,2.893,0,1,0-2.892-2.893A2.893,2.893,0,0,0,165.276,129.151Z" transform="translate(-56.243 -60.794)" fill="#fff"/>
      <path id="Path_100" data-name="Path 100" d="M93.3,125.191c.384,2.824,3.483,6.181,3.483,6.181a8.966,8.966,0,0,1-8.38-3.959,20.082,20.082,0,0,1-4.171.74c-9.694.687-18.04-5.642-18.643-14.144s6.767-15.945,16.461-16.632,18.039,5.642,18.642,14.144C101.085,117.052,98.1,122.135,93.3,125.191Z" transform="translate(-38.53 -56.03)" fill="#fff"/>
      <path id="Path_101" data-name="Path 101" d="M122.544,152.047c-.439,1.111-8.467,34.214-34.447,29.369-28.488-4.823-7.882-37.264-7.882-37.264Z" transform="translate(-39.894 -64.596)" fill="#dac7ff"/>
      <path id="Path_102" data-name="Path 102" d="M86.539,118.713a2.41,2.41,0,1,0-2.41-2.41A2.41,2.41,0,0,0,86.539,118.713Z" transform="translate(-41.927 -59.061)" fill="#915ff6"/>
      <path id="Path_103" data-name="Path 103" d="M73.329,117.42A2.425,2.425,0,1,0,70.9,115,2.425,2.425,0,0,0,73.329,117.42Z" transform="translate(-39.508 -58.819)" fill="#915ff6"/>
      <path id="Path_104" data-name="Path 104" d="M99.616,119.963a2.425,2.425,0,1,0-2.425-2.425A2.424,2.424,0,0,0,99.616,119.963Z" transform="translate(-44.317 -59.284)" fill="#915ff6"/>
      <path id="Path_105" data-name="Path 105" d="M160.465,158.835l-1.933,10.379-15.16-10.753.506-2.716Z" transform="translate(-52.765 -66.717)" fill="#915ff6"/>
    </g>
    <path id="Path_99" data-name="Path 99" d="M218.173,133.164,214.7,151.759a.308.308,0,0,1-.359.246l-9.117-1.7a.062.062,0,0,1-.038-.025.064.064,0,0,1-.01-.046l3.513-18.837a.062.062,0,0,1,.025-.038.064.064,0,0,1,.046-.01l9.359,1.746a.056.056,0,0,1,.039.025A.062.062,0,0,1,218.173,133.164Z" transform="translate(17868.354 2995.867)" fill="#b590ff"/>
  </g>
</svg>
