<svg id="Group_77" data-name="Group 77" xmlns="http://www.w3.org/2000/svg" xmlns:xlink="http://www.w3.org/1999/xlink" width="112" height="65.552" viewBox="0 0 112 65.552">
  <defs>
    <clipPath id="clip-path">
      <rect id="Rectangle_37" data-name="Rectangle 37" width="112" height="65.552" fill="none"/>
    </clipPath>
    <clipPath id="clip-path-3">
      <rect id="Rectangle_33" data-name="Rectangle 33" width="109.571" height="58.913" fill="none"/>
    </clipPath>
    <clipPath id="clip-path-5">
      <path id="Path_45" data-name="Path 45" d="M369.113,134.941a12.116,12.116,0,0,0,3.043,7.788l.011-3.97a12.115,12.115,0,0,1-3.043-7.788Z" transform="translate(-369.113 -130.971)" fill="none"/>
    </clipPath>
  </defs>
  <g id="Group_37" data-name="Group 37" clip-path="url(#clip-path)">
    <g id="Group_30" data-name="Group 30">
      <g id="Group_29" data-name="Group 29" clip-path="url(#clip-path)">
        <g id="Group_28" data-name="Group 28" transform="translate(2.43 6.639)" opacity="0.5" style="mix-blend-mode: multiply;isolation: isolate">
          <g id="Group_27" data-name="Group 27">
            <g id="Group_26" data-name="Group 26" clip-path="url(#clip-path-3)">
              <path id="Path_42" data-name="Path 42" d="M118.539,54.021c-11.846-6.839-30.987-6.839-42.755,0-9.275,5.39-11.2,13.418-6.031,20.057L17.892,104.215l6.217,3.589H39.9l6.608-3.839-.386-3.217,5.517-3.206,7.189-.837,2.51-1.458L60.332,88.8l4.537-2.609L75.233,87.48,84.3,82.212c11.253,3.106,25.106,1.964,34.381-3.426,11.768-6.839,11.706-17.926-.139-24.765m-13.016,6.586c-3.757,0-6.8-1.023-6.8-2.283s2.937-2.73,6.694-2.73,6.913,1.471,6.913,2.73-3.046,2.283-6.8,2.283" transform="translate(-17.892 -48.892)" fill="#b3b3b3"/>
            </g>
          </g>
        </g>
      </g>
    </g>
    <g id="Group_32" data-name="Group 32">
      <g id="Group_31" data-name="Group 31" clip-path="url(#clip-path)">
        <path id="Path_43" data-name="Path 43" d="M618,62.818a3.185,3.185,0,0,1-.724,1.951,8.6,8.6,0,0,0-4.688-2.473,12.9,12.9,0,0,0-7.9.68,6.716,6.716,0,0,0-2.2,1.414,3.919,3.919,0,0,0-.311.361c-1.372-1.761-.816-3.9,1.673-5.348a12.892,12.892,0,0,1,11.7,0A4.208,4.208,0,0,1,618,62.693c0,.042,0,.084,0,.125" transform="translate(-519.778 -50.123)" fill="#b7830f"/>
      </g>
    </g>
    <g id="Group_34" data-name="Group 34" transform="translate(50.124 17.785)">
      <g id="Group_33" data-name="Group 33" clip-path="url(#clip-path-5)">
        <path id="Path_44" data-name="Path 44" d="M369.124,130.972l-.011,3.97a12.118,12.118,0,0,0,3.043,7.788l.011-3.97a12.116,12.116,0,0,1-3.043-7.788" transform="translate(-369.113 -130.972)" fill="#b7830f"/>
      </g>
    </g>
    <g id="Group_36" data-name="Group 36">
      <g id="Group_35" data-name="Group 35" clip-path="url(#clip-path)">
        <path id="Path_46" data-name="Path 46" d="M407.833,199.342l-.011,3.97-2.3-1.33.011-3.969Z" transform="translate(-350.451 -171.123)" fill="#b7830f"/>
        <path id="Path_47" data-name="Path 47" d="M543.21,132.6a13.319,13.319,0,0,1-3.7,8.074,22.9,22.9,0,0,1-7.339,5.211,46.884,46.884,0,0,1-21.957,4.111,49.906,49.906,0,0,1-11.062-1.7l-.011,3.97c0,.332,4.781,1.039,5.25,1.112a52.693,52.693,0,0,0,5.647.569,46.036,46.036,0,0,0,21.988-4.03q.989-.476,1.946-1.015a21.564,21.564,0,0,0,6.288-5.084,13.5,13.5,0,0,0,2.641-5.181,27.009,27.009,0,0,0,.312-6.393c0,.117,0,.234,0,.351" transform="translate(-431.36 -114.288)" fill="#b7830f"/>
        <path id="Path_48" data-name="Path 48" d="M440.291,250.454l-.011,3.97L431.03,259.8l.011-3.97Z" transform="translate(-372.498 -216.443)" fill="#d69c0b"/>
        <path id="Path_49" data-name="Path 49" d="M363.709,281.652l-.011,3.97-10.58-1.318.011-3.969Z" transform="translate(-305.165 -242.266)" fill="#b7830f"/>
        <path id="Path_50" data-name="Path 50" d="M323.658,280.334l-.011,3.97-4.631,2.662.011-3.97Z" transform="translate(-275.695 -242.266)" fill="#d69c0b"/>
        <path id="Path_51" data-name="Path 51" d="M310.3,348.432l-.011,3.97-2.563,1.489.011-3.97Z" transform="translate(-265.94 -301.116)" fill="#d69c0b"/>
        <path id="Path_52" data-name="Path 52" d="M261.053,359.4l-.011,3.97-7.336.853.011-3.97Z" transform="translate(-219.253 -310.594)" fill="#b7830f"/>
        <path id="Path_53" data-name="Path 53" d="M217.869,365.68l-.011,3.97-5.633,3.273.011-3.97Z" transform="translate(-183.405 -316.022)" fill="#d69c0b"/>
        <path id="Path_54" data-name="Path 54" d="M68.375,198.012l-.011,3.97L15.385,232.769,15.4,228.8Z" transform="translate(-13.296 -171.123)" fill="#ca9f24"/>
        <path id="Path_55" data-name="Path 55" d="M70.749,209.062,17.771,239.85l-2.3-1.33,52.979-30.788Z" transform="translate(-13.367 -179.523)" fill="#e8b423"/>
        <path id="Path_56" data-name="Path 56" d="M85.335,207.8l-.011,3.97L32.345,242.561l.011-3.97Z" transform="translate(-27.953 -179.585)" fill="#b58e20"/>
        <path id="Path_57" data-name="Path 57" d="M172.213,413.966l-.011,3.97-6.745,3.92.011-3.97Z" transform="translate(-142.989 -357.751)" fill="#d69c0b"/>
        <path id="Path_58" data-name="Path 58" d="M62.859,442.827l-.011,3.97H46.725l.011-3.97Z" transform="translate(-40.38 -382.692)" fill="#b7830f"/>
        <path id="Path_59" data-name="Path 59" d="M102.81,5.237c-12.09-6.981-31.63-6.981-43.64,0-9.469,5.5-11.432,13.7-5.923,20.34L.077,56.471l2.09,1.206L55.145,26.889l2.3,1.331L4.469,59.008l1.954,1.128H22.546l6.745-3.919L28.9,52.932l5.633-3.274,7.336-.853,2.561-1.488L43.4,40.731l4.63-2.663L58.61,39.387l9.249-5.376c11.489,3.171,25.626,2,35.093-3.5,12.013-6.979,11.948-18.3-.142-25.278m2.671,12.388c-.175,3.407-2.491,6.781-6.956,9.375-9.332,5.423-24.564,5.425-33.957,0-4.548-2.626-6.907-6.048-7.069-9.5-.008-.181-.01-.36-.006-.542,0-.054,0-.109,0-.164s.006-.113.01-.169.006-.109.01-.163l.018-.169c0-.055.01-.109.016-.162l.023-.169c.008-.054.016-.109.025-.164s.02-.111.029-.167.02-.109.031-.164.025-.113.037-.168.023-.109.037-.162.029-.113.045-.169.027-.107.043-.162.035-.111.053-.167.033-.107.051-.16.039-.111.058-.167.037-.107.056-.16.043-.111.066-.168.041-.105.062-.158.049-.111.072-.166l.07-.16c.025-.054.053-.109.08-.163s.051-.105.078-.158.056-.109.086-.164.055-.105.084-.158.062-.107.093-.162.059-.105.09-.158.068-.107.1-.162.062-.1.1-.154.072-.107.109-.162.068-.1.1-.152.076-.107.115-.162.072-.1.109-.15.082-.107.123-.16l.115-.15c.043-.053.086-.105.131-.158s.08-.1.121-.148.092-.105.138-.158.084-.1.128-.146.1-.1.144-.154.088-.1.134-.146.1-.1.152-.154.092-.1.14-.142.109-.1.162-.156.1-.092.144-.138.117-.1.173-.156.1-.089.148-.132.121-.105.181-.158.1-.086.152-.129.125-.1.187-.152.105-.088.16-.132l.195-.15c.056-.041.111-.086.167-.127s.14-.105.212-.156c.054-.039.107-.08.162-.119.074-.053.15-.105.224-.156l.164-.115.247-.164c.053-.033.1-.066.156-.1.093-.06.191-.121.288-.181.043-.025.084-.053.127-.08.14-.086.284-.171.429-.255,9.332-5.423,24.565-5.423,33.959,0,.146.086.292.171.434.257l.138.088.282.175c.059.037.117.076.173.115.078.051.158.1.234.152l.168.115.226.158c.056.039.109.078.164.119.072.051.146.1.216.156l.167.129.2.152c.055.043.107.086.16.13s.131.1.193.154l.156.132c.06.053.123.1.181.156s.1.09.15.134.119.105.175.158.1.092.146.138.111.1.166.158l.14.14c.053.053.105.105.156.158l.136.144c.049.053.1.1.146.158s.086.1.129.146.1.105.142.16l.121.146c.045.054.092.109.134.162s.078.1.115.15.086.107.127.162.074.1.111.152.08.107.117.162l.105.154c.037.055.074.109.109.164s.064.1.1.152.07.111.1.166l.092.156c.031.054.064.109.1.166s.056.105.084.156.06.111.09.167.051.105.078.156.055.113.08.169.049.105.072.158.051.111.074.168.043.107.064.16.047.113.068.169.037.107.057.16.041.113.06.169.035.107.051.162.037.111.053.168.031.109.045.163l.047.169c.014.055.025.107.037.162s.027.115.039.171.021.107.031.162.021.113.031.171.016.109.023.162.018.115.025.171.012.109.018.166l.018.169.012.164c0,.059.008.115.01.171s0,.109,0,.164,0,.115,0,.171c0,.142-.006.283-.012.425" transform="translate(-0.067 0)" fill="#f4c430"/>
        <path id="Path_60" data-name="Path 60" d="M4.4,418.386l0,1.318-2.3-1.328v-1.32L.011,415.85,0,419.819l2.089,1.206,2.3,1.33v0l1.952,1.127.011-3.97Z" transform="translate(0 -359.379)" fill="#a5730f"/>
        <path id="Path_61" data-name="Path 61" d="M470.866,37.793c0-.056,0-.11,0-.164s-.008-.113-.009-.171-.008-.109-.012-.164-.011-.113-.018-.168-.011-.111-.018-.166-.015-.114-.024-.172-.014-.106-.023-.162-.022-.114-.031-.171-.02-.109-.031-.162-.026-.115-.039-.171-.023-.107-.037-.162-.031-.113-.047-.17-.027-.109-.045-.163-.035-.111-.052-.168-.034-.109-.052-.162-.038-.113-.06-.17-.037-.107-.057-.159-.045-.113-.068-.17-.041-.107-.064-.16-.049-.113-.075-.167-.046-.106-.072-.158-.053-.113-.08-.17-.05-.1-.077-.156-.058-.111-.09-.167-.054-.1-.084-.156-.064-.111-.1-.166l-.092-.156c-.033-.054-.068-.11-.1-.166l-.1-.151c-.035-.056-.072-.11-.11-.164s-.069-.1-.1-.153-.077-.107-.117-.162-.072-.1-.111-.152-.084-.107-.126-.162-.076-.1-.115-.151-.09-.107-.134-.162l-.121-.145c-.046-.054-.1-.107-.141-.16s-.084-.1-.129-.145-.1-.106-.147-.159l-.136-.144c-.05-.053-.1-.1-.156-.158l-.14-.14c-.054-.054-.111-.106-.166-.158s-.1-.094-.147-.139-.117-.106-.175-.158-.1-.09-.149-.134-.121-.1-.181-.156l-.156-.133c-.062-.052-.129-.1-.193-.153s-.106-.088-.16-.13l-.2-.152-.168-.129c-.069-.052-.144-.1-.216-.156-.054-.041-.107-.079-.163-.118-.075-.053-.151-.1-.227-.158l-.167-.115c-.076-.05-.156-.1-.234-.152-.057-.038-.115-.077-.174-.114-.094-.058-.186-.117-.282-.175l-.138-.088c-.141-.086-.288-.171-.433-.257-9.4-5.424-24.628-5.424-33.96,0-.144.083-.288.17-.428.255-.043.027-.084.054-.128.079-.1.061-.194.121-.288.182-.053.035-.1.068-.156.1-.081.056-.166.11-.247.164-.054.039-.109.076-.163.114l-.224.156c-.056.039-.107.08-.162.12-.073.05-.145.1-.213.155s-.111.087-.167.128-.13.1-.2.149l-.159.133c-.063.05-.126.1-.187.152s-.1.086-.152.128l-.181.158c-.05.043-.1.088-.148.133s-.117.1-.174.156-.1.094-.144.139l-.162.155c-.049.048-.094.1-.14.143l-.152.153c-.048.049-.09.1-.134.147s-.1.1-.144.153-.086.1-.129.147-.094.1-.139.158l-.121.148c-.045.053-.087.106-.13.158l-.115.151c-.041.052-.083.107-.122.159s-.072.1-.109.151-.079.107-.115.162-.071.1-.1.152-.073.107-.109.162-.065.1-.1.153-.068.109-.1.162-.061.106-.09.158-.064.107-.094.162-.057.106-.084.159-.058.109-.086.163-.052.106-.077.158-.054.11-.08.164-.046.107-.071.159-.047.11-.072.166-.042.106-.062.158-.045.111-.065.168-.039.107-.057.159-.041.111-.058.168-.035.107-.05.159-.035.114-.053.168-.028.109-.042.162-.031.113-.045.17-.026.107-.038.162-.024.11-.037.167-.022.109-.031.164-.022.11-.029.167-.018.109-.026.163-.016.114-.023.17-.012.107-.016.162-.011.113-.018.17-.005.109-.01.164-.008.113-.009.168,0,.11,0,.164c0,.181,0,.36.005.542.162,3.447,2.522,6.87,7.07,9.495,9.393,5.425,24.625,5.424,33.957,0,4.465-2.594,6.78-5.968,6.956-9.375.005-.141.012-.281.012-.424,0-.057,0-.115,0-.171m-7.918-2.383a5.764,5.764,0,0,1-1.681,1.412,12.886,12.886,0,0,1-11.7,0,5.822,5.822,0,0,1-1.711-1.43c-1.372-1.761-.816-3.9,1.673-5.348a12.892,12.892,0,0,1,11.7,0,4.208,4.208,0,0,1,2.442,3.289c0,.042,0,.084,0,.125a3.186,3.186,0,0,1-.724,1.951" transform="translate(-365.444 -20.764)" fill="#fcc427"/>
        <path id="Path_62" data-name="Path 62" d="M424.606,32.678c-.035.051-.069.1-.1.153s-.073.107-.108.161-.064.1-.1.154-.068.108-.1.162-.06.1-.091.156-.063.108-.093.162-.056.105-.084.158-.058.108-.086.162-.052.106-.078.159-.054.109-.079.163-.047.106-.07.159-.049.11-.072.165-.043.106-.064.159-.045.111-.066.167-.038.106-.057.16-.04.112-.059.168-.034.107-.05.161-.035.111-.051.167-.029.108-.044.161-.031.112-.044.168-.025.108-.037.162-.026.112-.037.169-.021.109-.031.163-.021.112-.03.168-.016.109-.024.164-.016.112-.023.168-.011.109-.017.163-.012.113-.016.169-.007.109-.01.163-.007.113-.01.169,0,.109,0,.164c0,.18,0,.361.006.541.172-3.408,2.489-6.783,6.956-9.379,9.331-5.423,24.564-5.423,33.958,0,4.55,2.627,6.906,6.052,7.067,9.5.007-.142.012-.284.011-.426,0-.057,0-.114,0-.171s0-.109,0-.164-.006-.114-.01-.171-.007-.11-.011-.165-.011-.113-.017-.17-.011-.109-.018-.164-.016-.114-.024-.171-.015-.108-.024-.163-.021-.114-.032-.171-.02-.108-.031-.162-.025-.113-.038-.17-.024-.109-.038-.163-.03-.112-.045-.169-.029-.108-.045-.163-.035-.113-.053-.169-.033-.108-.051-.161-.04-.113-.06-.169-.038-.107-.058-.161-.045-.113-.067-.169-.042-.106-.064-.159-.05-.113-.075-.169-.046-.105-.071-.158-.054-.112-.082-.168-.051-.1-.077-.157-.059-.111-.089-.167-.055-.1-.084-.156-.064-.111-.1-.166-.059-.1-.09-.155-.069-.111-.1-.166-.063-.1-.1-.153-.074-.109-.11-.163-.068-.1-.1-.153-.078-.108-.117-.162-.073-.1-.111-.152-.084-.109-.126-.163-.076-.1-.116-.148-.089-.108-.134-.162-.08-.1-.121-.146-.094-.107-.142-.161-.084-.1-.128-.145-.1-.105-.148-.158-.089-.1-.136-.144-.1-.1-.156-.157-.093-.095-.141-.142-.11-.105-.166-.158-.1-.092-.145-.138-.116-.1-.175-.157-.1-.09-.15-.135-.122-.1-.182-.156-.1-.089-.156-.133-.127-.1-.191-.155l-.161-.13c-.065-.051-.133-.1-.2-.153s-.11-.085-.167-.128-.143-.1-.215-.157c-.055-.04-.108-.08-.164-.119-.074-.053-.151-.1-.227-.157l-.167-.116c-.076-.051-.155-.1-.233-.153l-.174-.114c-.092-.059-.187-.117-.282-.175l-.139-.087q-.214-.13-.435-.258c-9.393-5.423-24.627-5.422-33.958,0q-.218.127-.429.256l-.127.08c-.1.06-.194.12-.289.181l-.154.1c-.083.054-.166.109-.248.164l-.164.113c-.075.052-.151.1-.225.156l-.162.118c-.071.052-.143.1-.213.156l-.166.128c-.065.05-.131.1-.194.15s-.108.087-.161.131-.125.1-.186.152-.1.087-.152.13-.122.1-.182.156-.1.089-.147.133-.117.1-.173.157-.1.092-.144.138-.109.1-.162.155-.095.1-.142.143-.1.1-.151.153-.09.1-.135.145-.1.1-.144.156-.085.1-.128.146-.092.1-.137.157-.082.1-.122.149-.087.1-.129.158-.077.1-.116.15-.083.106-.122.159-.073.1-.109.151-.078.107-.115.161" transform="translate(-365.445 -20.765)" fill="#b7830f"/>
        <path id="Path_63" data-name="Path 63" d="M454.975,21.713c-10-5.775-26.224-5.773-36.162,0-4.953,2.879-7.423,6.656-7.419,10.437,0,.06,0,.121,0,.181s0,.117,0,.175.008.121.012.181.006.117.012.175l.018.181c.006.059.012.117.019.175s.018.121.025.181.017.117.027.175.021.121.033.181.021.115.033.173.027.121.041.181.025.115.041.173.031.121.049.181.029.115.047.171.037.121.056.181.035.115.055.171.041.119.062.179.041.115.062.171l.07.179c.023.056.047.113.07.171s.053.117.078.177.051.113.078.169.057.119.086.177l.082.169c.031.058.062.117.1.175s.058.113.09.167.068.117.1.175.064.111.1.167.072.115.109.173.068.111.105.166.078.115.117.173.072.109.111.164l.125.171c.039.055.078.109.119.162s.088.115.132.173.082.105.125.158.094.115.14.171.088.105.13.158.1.113.15.169.091.105.138.156.105.113.158.169l.144.152c.055.056.111.113.168.169s.1.1.148.15l.173.166.158.148c.06.056.123.111.183.166l.162.146c.064.056.131.111.2.167s.109.093.164.138.134.109.2.164l.173.14c.068.055.14.107.211.162s.119.092.179.136.146.107.22.162.123.088.185.132l.226.158c.064.043.127.088.193.132.082.055.166.107.247.162l.185.123.312.193c.045.029.09.056.136.086.152.092.308.183.464.275,10,5.775,26.224,5.775,36.162,0,.156-.09.308-.181.458-.273l.138-.088c.1-.064.2-.127.3-.191.056-.035.111-.072.166-.109.088-.059.177-.115.263-.173.06-.041.119-.084.179-.125.078-.055.158-.107.234-.162.06-.043.119-.088.177-.131.074-.055.15-.107.222-.162l.175-.134c.068-.054.14-.107.208-.162l.175-.142.195-.158c.056-.049.111-.1.166-.144s.127-.107.189-.162.105-.1.158-.142.125-.111.183-.167.1-.1.152-.144l.175-.167.146-.148c.055-.056.111-.111.166-.167l.14-.152.156-.168.134-.154c.051-.056.1-.113.148-.169s.088-.105.131-.158.094-.111.138-.168l.123-.16c.043-.056.088-.113.131-.17s.078-.107.115-.16.084-.115.125-.173.072-.107.109-.162.078-.115.115-.172.068-.111.1-.166l.107-.172c.033-.056.064-.111.1-.167s.068-.115.1-.171.06-.111.089-.168.062-.117.092-.175.055-.111.082-.167.058-.117.084-.175.051-.113.076-.169.053-.117.076-.175.047-.113.068-.169.049-.119.07-.177.041-.115.06-.171.043-.119.062-.177.037-.115.054-.172.037-.119.055-.179l.047-.171.047-.179c.014-.056.025-.115.039-.172s.027-.121.041-.179.021-.117.031-.173.023-.121.033-.181.018-.115.025-.172.018-.121.025-.181.012-.115.018-.173.014-.121.018-.181.008-.115.012-.173.008-.121.01-.179,0-.117,0-.175c.074-3.864-2.437-7.747-7.532-10.69m5.966,10.933c-.175,3.407-2.491,6.781-6.956,9.375-9.332,5.423-24.564,5.425-33.957,0-4.548-2.626-6.907-6.048-7.069-9.5-.008-.181-.01-.36-.006-.542,0-.054,0-.109,0-.164s.006-.113.01-.169.006-.109.01-.164l.018-.169c0-.055.01-.109.016-.162l.023-.169c.008-.054.016-.109.025-.164s.02-.111.029-.167.02-.109.031-.164.025-.113.037-.168.023-.109.037-.162.029-.113.045-.169.027-.107.043-.162.035-.111.053-.167.033-.107.051-.16.039-.111.058-.167.037-.107.057-.16.043-.111.066-.168.041-.105.062-.158.049-.111.072-.166l.07-.16c.025-.054.053-.109.08-.163s.051-.105.078-.158.057-.109.086-.164.055-.105.084-.158.062-.107.093-.162.059-.105.09-.158.068-.107.1-.162.062-.1.1-.154.072-.107.109-.162.068-.1.1-.152.076-.107.115-.162.072-.1.109-.15.082-.107.123-.16l.115-.15c.043-.053.086-.105.131-.158s.08-.1.121-.148.092-.105.138-.158.084-.1.129-.146.1-.1.144-.154.088-.1.134-.146.1-.1.152-.154.092-.1.14-.142.109-.1.162-.156.1-.092.144-.138.117-.1.173-.156.1-.089.148-.132.121-.105.181-.158.1-.086.152-.129.125-.1.187-.152.105-.088.16-.132l.195-.15c.056-.041.111-.086.167-.127s.14-.105.212-.156c.054-.039.107-.08.162-.119.074-.053.15-.105.224-.156l.164-.115.247-.164c.053-.033.1-.066.156-.1.093-.06.191-.121.288-.181.043-.025.084-.053.127-.08.14-.086.284-.171.429-.255,9.332-5.423,24.565-5.423,33.959,0,.146.086.292.171.434.257l.138.088.282.175c.059.037.117.076.173.115.078.051.158.1.234.152l.168.115.226.158c.057.039.109.078.164.119.072.051.146.1.216.156l.167.129.2.152c.055.043.107.086.16.131s.13.1.193.154l.156.132c.06.053.123.1.181.156s.1.09.15.134.119.105.175.158.1.092.146.138.111.1.166.158l.14.14c.053.053.105.105.156.158l.136.144c.049.053.1.1.146.158s.086.1.129.146.1.105.142.16l.121.146c.045.054.092.109.134.162s.078.1.115.15.086.107.127.162.074.1.111.152.08.107.117.162l.105.154c.037.055.074.109.109.164s.064.1.1.152.07.111.1.166l.092.156c.031.054.064.109.1.166s.057.105.084.156.06.111.09.167.051.105.078.156.055.113.08.169.049.105.072.158.051.111.074.168.043.107.064.16.047.113.068.169.037.107.056.16.041.113.06.169.035.107.051.162.037.111.053.168.031.109.045.163l.047.169c.014.055.025.107.037.162s.027.115.039.171.021.107.031.162.021.113.031.171.016.109.023.162.018.115.025.171.012.109.018.166l.018.169.012.164c0,.059.008.115.01.171s0,.109,0,.164,0,.115,0,.171c0,.142-.006.283-.012.425" transform="translate(-355.527 -15.022)" fill="#d69c0b"/>
      </g>
    </g>
  </g>
</svg>
