<svg xmlns="http://www.w3.org/2000/svg" width="150.098" height="152" viewBox="0 0 150.098 152">
  <g id="Group_47" data-name="Group 47" transform="translate(-722.999 -120)">
    <path id="Path_85" data-name="Path 85" d="M82.1,182.327c10.569,6.37,18.108,3.726,20.994-1.382,5.582-9.879,24.142-30.079,53.553-36.907,38.955-9.043,30.82-33.052,6.872-45.652S121.669,68.354,124.38,49.4,100.239,23.907,88.3,60.372c-7.716,23.565-21.545,29.878-30.363,31.4-8.311,1.431-17.4,3.225-21.835,10.4-5.379,8.7-3.5,17.509,19.02,23.548C87.037,134.271,58.413,168.049,82.1,182.327Z" transform="translate(689.422 85.931)" fill="#393b3e"/>
    <path id="Path_86" data-name="Path 86" d="M62.521,184.3c.447-.256,5.5-2.393,30.609,9.315-.073.1-.1.147-.1.147S66.917,202.55,61.8,191.719c-1.527-3.225-1.09-5.445.675-7.4Z" transform="translate(681.544 42.66)" fill="#5a32aa"/>
    <path id="Path_87" data-name="Path 87" d="M172.811,189.857c-5.456,4.587-14.012,7.916-22.268,3.489,1.3-.834,2.652-1.692,4.026-2.581C162.86,185.438,170.164,189,172.811,189.857Z" transform="translate(655.66 41.53)" fill="#5a32aa"/>
    <path id="Path_88" data-name="Path 88" d="M157.37,102.9c5.574,46.417-7.673,54.841-9.147,56.121-.428.371-.6.344-1.246.177l-.011.006c-2.732-.724-9.319-4.311-17.61,1.016-1.374.888-2.722,1.747-4.027,2.581-8.458,5.364-15.288,9.144-20.209,6.951-4.174-2.13-7.937-3.972-11.321-5.555-25.113-11.708-30.161-9.571-30.608-9.315a118.913,118.913,0,0,0,11.69-7.562c.022-.012.044-.025.048-.042,8.568-6.209,20.043-15.995,28.29-28.582,5.615-8.56,11.108-30.259,21.706-34.517C146.706,76.054,156.466,93.458,157.37,102.9Z" transform="translate(680.874 72.074)" fill="#915ff6"/>
    <path id="Path_89" data-name="Path 89" d="M160.426,108.665c.676-1.785.61-3.465-.147-3.752s-1.919.928-2.6,2.713-.61,3.465.147,3.752S159.75,110.45,160.426,108.665Z" transform="translate(653.734 65.495)" fill="#fff"/>
    <path id="Path_90" data-name="Path 90" d="M179.973,111.891c.479-1.848.233-3.511-.552-3.714s-1.808,1.13-2.287,2.978-.232,3.511.552,3.715S179.494,113.739,179.973,111.891Z" transform="translate(648.056 64.546)" fill="#fff"/>
    <path id="Path_91" data-name="Path 91" d="M167.435,121.653a.5.5,0,0,1-.486-.393c-.089-.4-.484-1.591-1.11-1.768s-1.855.509-2.352.869a.5.5,0,0,1-.584-.807c.2-.142,1.951-1.376,3.206-1.022,1.31.37,1.766,2.3,1.813,2.515a.5.5,0,0,1-.272.556.5.5,0,0,1-.215.049Z" transform="translate(652.152 61.569)" fill="#fff"/>
  </g>
</svg>
