<svg xmlns="http://www.w3.org/2000/svg" xmlns:xlink="http://www.w3.org/1999/xlink" width="141.998" height="34.972" viewBox="0 0 141.998 34.972">
  <defs>
    <linearGradient id="linear-gradient" x1="0.5" x2="0.5" y2="1" gradientUnits="objectBoundingBox">
      <stop offset="0" stop-color="#58f0e4"/>
      <stop offset="1" stop-color="#d272ef"/>
    </linearGradient>
  </defs>
  <path id="Union_4" data-name="Union 4" d="M-16086.713,6949.982c-.243-.012-.473-.3-.647-.543a4.717,4.717,0,0,1,.941-.421,6.67,6.67,0,0,1,1-.693,6.691,6.691,0,0,1-1,.693c.4-.231.728-.46,1.051-.69l0,0a5.518,5.518,0,0,0,1.413-.679,8.71,8.71,0,0,0,2.766-5.272c.864-5.282.267-10.594.451-15.887.025-.74,0-1.481,0-2.349h.85c1.012,0,2.024,0,3.036-.009,2.272-.01,4.547-.021,6.819.023a7.741,7.741,0,0,1,7.8,7.833,16.762,16.762,0,0,1-.469,4.186,6.454,6.454,0,0,1-5.151,4.734,33.519,33.519,0,0,1-4.731.414c-.669.049-.977-.235-.956-.953.04-1.367.012-2.736.012-4.175.774-.106,1.518-.165,2.241-.316,2.11-.441,2.653-1.857,2.511-3.626-.177-2.183-1.128-2.924-3.339-2.975-.653-.015-1.306-.073-2.063-.117-.012.291-.036.588-.037.885,0,3.6.015,7.2-.008,10.8a9.336,9.336,0,0,1-1.937,5.739c-1.752,2.294-4.246,3.122-6.954,3.423a11.683,11.683,0,0,1-1.282.064C-16085.17,6950.074-16085.944,6950.019-16086.713,6949.982Zm65.3-.983a11.4,11.4,0,0,1-7.864-9.885,13.649,13.649,0,0,1,2.277-10.2c.257-.269.435-.466.612-.664,0,0,0,.012.049,0a2.033,2.033,0,0,0,.244-.394,10.672,10.672,0,0,1,5.1-3.148,16.715,16.715,0,0,1,9.629-.1,11.762,11.762,0,0,1,8.789,11.259,15.025,15.025,0,0,1-.736,5.912c-1.693,4.741-5.248,7.164-10.074,7.909a18.1,18.1,0,0,1-2.763.217A15.468,15.468,0,0,1-16021.41,6949Zm-1.012-14.488a11.814,11.814,0,0,0-.154,4.143,5.925,5.925,0,0,0,4.688,5.382c2.837.659,5.4.152,7.362-2.415a8.737,8.737,0,0,0,1.09-6.83,6.277,6.277,0,0,0-6.4-5.221l-.189,0A6.121,6.121,0,0,0-16022.422,6934.511Zm-69,13.848a8.068,8.068,0,0,1-3.559-6.944c.023-5.425-.013-10.851-.024-16.276,0-.308,0-.616,0-.982h6.548v.924c0,4.54-.061,9.082.041,13.62a13.288,13.288,0,0,0,.835,3.852,3.231,3.231,0,0,0,3.544,1.692c.246-.065.492-.135.742-.182a3.421,3.421,0,0,1,.52,0c.009,1.973-1.442,2.974-2.6,4.213,0,.06,0,.049-.056.052-.394.232-.729.464-1.063.694-.271.114-.541.227-.865.351a3.723,3.723,0,0,1-1.1.172A5.091,5.091,0,0,1-16091.418,6948.358Zm35.744.031q-2.435-7.838-4.839-15.686-1.132-3.677-2.265-7.354c-.058-.187-.1-.379-.163-.632h6.9l3.817,13.473.174.038q2.065-6.748,4.141-13.526h4.866q1.3,4.265,2.612,8.557c.52,1.688,1.059,3.369,1.657,5.152-.791,3.64-1.65,7.18-2.51,10.721-.461-1.4-.942-2.788-1.378-4.193-.827-2.667-1.627-5.343-2.442-8.015-.1-.32-.224-.631-.4-1.119l-4.09,13.377c-1.816,0-3.612-.021-5.408.01h-.021C-16055.623,6949.194-16055.572,6948.719-16055.674,6948.39Zm79.886.794h-1.31v-24.477c.266-.014.537-.041.811-.042,3.313,0,6.63-.058,9.942.024a17.787,17.787,0,0,1,4.31.576c4.585,1.281,7.082,4.462,7.823,9.088a15.665,15.665,0,0,1-.238,6.295,10.638,10.638,0,0,1-9.522,8.338c-1.9.2-3.82.163-5.731.191-.777.011-1.556.015-2.339.015C-15973.272,6949.192-15974.515,6949.184-15975.788,6949.184Zm5.2-5.641c1.718,0,3.376.087,5.021-.022a4.672,4.672,0,0,0,4.209-3.035,9.169,9.169,0,0,0,.146-6.773,4.946,4.946,0,0,0-4.378-3.41h-5Zm-15.077,5.611c-.209,0-.465-.362-.606-.608-1.327-2.33-2.646-4.665-3.938-7.014a.952.952,0,0,0-1-.591c-.938.042-1.88.013-2.936.013v8.179h-6.423v-24.414a5.573,5.573,0,0,1,.56-.053c3.6,0,7.2-.017,10.8.011a13.9,13.9,0,0,1,5.513,1.052,7.18,7.18,0,0,1,4.461,6.733,6.948,6.948,0,0,1-3.914,7.029l-.816.436c1.7,3.07,3.385,6.1,5.135,9.255l-2.975,0C-15983.112,6949.185-15984.391,6949.179-15985.67,6949.154Zm-8.405-18.759v5.56c1.413,0,2.757.057,4.093-.019a21.836,21.836,0,0,0,2.885-.5,2.692,2.692,0,0,0,1.147-3.069,2.168,2.168,0,0,0-2.1-1.942c-.828-.048-1.658-.062-2.488-.062C-15991.72,6930.366-15992.9,6930.395-15994.075,6930.395Zm-47.132,18.76c.782-3.562,1.642-7.1,2.489-10.714-.013-.071-.008-.06.04-.1a2.86,2.86,0,0,0,.122-.572q1.5-5.391,3-10.781c.053-.192.1-.386.181-.684a.329.329,0,0,0-.024-.064c-.035-.005-.063-.035-.117-.093a.068.068,0,0,1,.049,0,.388.388,0,0,0-.087-.05l-2.666.381c2.929-3.238,5.689-6.292,8.579-9.484.385,1.482.734,2.818,1.078,4.156.567,2.207,1.127,4.417,1.707,6.622a1.082,1.082,0,0,0,.4.477,3.235,3.235,0,0,1-.5.612c-.624-.372-1.21-.768-1.917-1.246-2.216,7.176-4.424,14.324-6.657,21.553C-16037.386,6949.176-16039.259,6949.176-16041.207,6949.154Zm-44.154-.832-.007,0S-16085.365,6948.322-16085.361,6948.323Zm46.77-10.5a1.254,1.254,0,0,1-.092.519A1.256,1.256,0,0,1-16038.592,6937.826Zm12.455-9.944a.853.853,0,0,1-.205.365A.85.85,0,0,1-16026.137,6927.882Z" transform="translate(16095.501 -6915.979)" stroke="rgba(0,0,0,0)" stroke-miterlimit="10" stroke-width="1" fill="url(#linear-gradient)"/>
</svg>
