<svg xmlns="http://www.w3.org/2000/svg" xmlns:xlink="http://www.w3.org/1999/xlink" width="33.869" height="41.117" viewBox="0 0 33.869 41.117">
  <defs>
    <linearGradient id="linear-gradient" x1="0.5" x2="0.5" y2="1" gradientUnits="objectBoundingBox">
      <stop offset="0" stop-color="#2ec9bd"/>
      <stop offset="1" stop-color="#ac4dc9"/>
    </linearGradient>
  </defs>
  <g id="Group_133" data-name="Group 133" transform="translate(17680.5 5808.582)">
    <path id="Union_1" data-name="Union 1" d="M16.434,40.035A16.434,16.434,0,0,1,0,23.6V7.048a7.036,7.036,0,0,1,11.3-5.6l5.139,3.91L7.694,14.141l.163.564a.27.27,0,0,1-.346,0c-.1-.065-.155-.13-.155.088l-1.3.088a9.8,9.8,0,0,0,1.221-.056,6.866,6.866,0,0,1,1.572-.032c.1,1.423-1.106,2.133.406,2.133h3.976l-1.053,8.756c0,3.059.962,4.548,4.02,4.548l-.187.395,1.089.215-.043.593c2.54-.36,3.266-2.874,3.266-5.7l.8-8.674,3.347-.1c1.579,0,1.68-.533,1.68-2.111l.37-.38c0-.2-.283-.459-.37-.635s-5.6-1.519-5.757-1.64L16.434,5.359l5.139-3.91a7.035,7.035,0,0,1,11.295,5.6V23.6A16.434,16.434,0,0,1,16.434,40.035Z" transform="translate(-17680 -5808)" stroke="rgba(0,0,0,0)" stroke-miterlimit="10" stroke-width="1" fill="url(#linear-gradient)"/>
    <rect id="Rectangle_1" data-name="Rectangle 1" width="32.868" height="40.035" transform="translate(-17680 -5808)" fill="none"/>
    <path id="Path_3" data-name="Path 3" d="M60.221,46.125v.724a2.858,2.858,0,0,1-2.858,2.858H54.9v8.127a5.538,5.538,0,0,1-5.5,5.538H49.36a5.538,5.538,0,0,1-5.538-5.538V49.707H41.358A2.858,2.858,0,0,1,38.5,46.848v-.667A1.286,1.286,0,0,1,39,45.16l.073-.056L49.4,37.254,59.714,45.1a1.286,1.286,0,0,1,.506,1.021" transform="translate(-17712.963 -5839.896)" fill="#fff"/>
  </g>
</svg>
